<svg xmlns="http://www.w3.org/2000/svg" xmlns:xlink="http://www.w3.org/1999/xlink" width="500" zoomAndPan="magnify" viewBox="0 0 375 374.999991" height="500" preserveAspectRatio="xMidYMid meet" version="1.0"><defs><g/><clipPath id="ec023356d8"><path d="M 41.25 139 L 189 139 L 189 243 L 41.25 243 Z M 41.25 139 " clip-rule="nonzero"/></clipPath><clipPath id="1b1b3c5a83"><path d="M 66 105.261719 L 189 105.261719 L 189 243 L 66 243 Z M 66 105.261719 " clip-rule="nonzero"/></clipPath></defs><g clip-path="url(#ec023356d8)"><path fill="#ffffff" d="M 187.539062 240.035156 C 187.539062 240.035156 174.773438 233.082031 152.375 231.980469 C 142.511719 231.496094 130.765625 232.148438 117.414062 235.046875 C 117.414062 235.046875 45.449219 144.578125 45.449219 144.578125 C 47.265625 144.164062 50.238281 143.558594 54.109375 143.019531 C 57.222656 142.585938 60.902344 142.195312 65.03125 141.96875 C 65.789062 141.929688 66.371094 141.28125 66.328125 140.523438 C 66.285156 139.765625 65.640625 139.1875 64.882812 139.226562 C 60.667969 139.457031 56.90625 139.855469 53.734375 140.300781 C 46.808594 141.265625 42.667969 142.429688 42.667969 142.429688 C 42.222656 142.554688 41.875 142.894531 41.734375 143.332031 C 41.589844 143.769531 41.675781 144.246094 41.964844 144.609375 L 115.796875 237.425781 C 116.125 237.835938 116.65625 238.023438 117.171875 237.910156 C 130.589844 234.917969 142.378906 234.238281 152.242188 234.722656 C 173.882812 235.789062 186.230469 242.445312 186.230469 242.445312 C 186.898438 242.808594 187.730469 242.5625 188.089844 241.894531 C 188.453125 241.226562 188.203125 240.394531 187.539062 240.035156 Z M 187.539062 240.035156 " fill-opacity="1" fill-rule="evenodd"/></g><g clip-path="url(#1b1b3c5a83)"><path fill="#ffffff" d="M 188.195312 240.433594 C 188.195312 240.433594 180.296875 227.132812 160.527344 218.707031 C 151.769531 214.976562 140.671875 212.195312 126.878906 211.980469 C 126.878906 211.980469 78.121094 123.132812 70.082031 108.488281 C 75.21875 108.566406 88.421875 109.21875 103.28125 113.488281 C 113.863281 116.527344 125.285156 121.402344 135.21875 129.234375 C 135.816406 129.707031 136.679688 129.601562 137.148438 129.007812 C 137.617188 128.410156 137.515625 127.546875 136.921875 127.078125 C 126.691406 119.015625 114.933594 113.976562 104.039062 110.851562 C 84.484375 105.230469 67.726562 105.746094 67.726562 105.746094 C 67.246094 105.761719 66.8125 106.023438 66.574219 106.441406 C 66.339844 106.851562 66.332031 107.363281 66.5625 107.777344 L 124.859375 214.003906 C 125.097656 214.441406 125.554688 214.710938 126.050781 214.71875 C 139.78125 214.832031 150.800781 217.546875 159.449219 221.230469 C 178.269531 229.253906 185.835938 241.839844 185.835938 241.839844 C 186.226562 242.492188 187.070312 242.707031 187.722656 242.316406 C 188.371094 241.925781 188.585938 241.082031 188.195312 240.433594 Z M 188.195312 240.433594 " fill-opacity="1" fill-rule="evenodd"/></g><path fill="#ffffff" d="M 187.875 240.238281 C 187.875 240.238281 177.714844 231.476562 156.105469 227.304688 C 147.058594 225.558594 135.996094 224.617188 122.808594 225.476562 C 122.808594 225.476562 58.082031 126.714844 58.082031 126.714844 C 59.953125 126.582031 62.925781 126.4375 66.738281 126.476562 C 69.878906 126.511719 73.578125 126.671875 77.691406 127.0625 C 78.445312 127.136719 79.117188 126.582031 79.191406 125.824219 C 79.261719 125.070312 78.707031 124.402344 77.953125 124.328125 C 73.75 123.929688 69.972656 123.765625 66.769531 123.730469 C 59.777344 123.65625 55.507812 124.191406 55.507812 124.191406 C 55.039062 124.25 54.628906 124.550781 54.433594 124.980469 C 54.234375 125.410156 54.269531 125.914062 54.53125 126.308594 L 120.957031 227.652344 C 121.226562 228.066406 121.703125 228.304688 122.195312 228.269531 C 135.453125 227.339844 146.550781 228.261719 155.582031 230 C 176.3125 234 186.085938 242.324219 186.085938 242.324219 C 186.664062 242.816406 187.53125 242.75 188.023438 242.175781 C 188.515625 241.597656 188.449219 240.730469 187.875 240.238281 Z M 187.875 240.238281 " fill-opacity="1" fill-rule="evenodd"/><g fill="#ffffff" fill-opacity="1"><g transform="translate(131.93311, 175.426688)"><g><path d="M 21.3125 -1.265625 L 26.015625 -1.265625 L 26.015625 -17.484375 L 12.03125 -17.484375 L 12.03125 -1.265625 L 16.75 -1.265625 L 16.75 0 L 1.53125 0 L 1.53125 -1.265625 L 6.25 -1.265625 L 6.25 -32.90625 L 1.53125 -32.90625 L 1.53125 -34.1875 L 16.75 -34.1875 L 16.75 -32.90625 L 12.03125 -32.90625 L 12.03125 -18.8125 L 26.015625 -18.8125 L 26.015625 -32.90625 L 21.3125 -32.90625 L 21.3125 -34.1875 L 36.46875 -34.1875 L 36.46875 -32.90625 L 31.796875 -32.90625 L 31.796875 -1.265625 L 36.46875 -1.265625 L 36.46875 0 L 21.3125 0 Z M 21.3125 -1.265625 "/></g></g></g><g fill="#ffffff" fill-opacity="1"><g transform="translate(166.695621, 175.426688)"><g><path d="M 11.453125 -29.15625 C 11.453125 -28.34375 11.140625 -27.671875 10.515625 -27.140625 C 9.898438 -26.609375 9.1875 -26.34375 8.375 -26.34375 C 7.5625 -26.34375 6.84375 -26.609375 6.21875 -27.140625 C 5.601562 -27.671875 5.296875 -28.34375 5.296875 -29.15625 C 5.296875 -29.96875 5.597656 -30.644531 6.203125 -31.1875 C 6.804688 -31.738281 7.53125 -32.015625 8.375 -32.015625 C 9.21875 -32.015625 9.941406 -31.738281 10.546875 -31.1875 C 11.148438 -30.644531 11.453125 -29.96875 11.453125 -29.15625 Z M 1.75 -1.265625 L 5.828125 -1.265625 L 5.828125 -18.875 L 1.75 -18.875 L 1.75 -20.140625 L 10.96875 -20.140625 L 10.96875 -1.265625 L 15.109375 -1.265625 L 15.109375 0 L 1.75 0 Z M 1.75 -1.265625 "/></g></g></g><g fill="#ffffff" fill-opacity="1"><g transform="translate(180.102268, 175.426688)"><g><path d="M 1.59375 -15.90625 L 3.390625 -20.25 L 20.609375 -20.25 L 18.8125 -15.90625 Z M 1.59375 -15.90625 "/></g></g></g><g fill="#ffffff" fill-opacity="1"><g transform="translate(199.656014, 175.426688)"><g><path d="M 30.109375 -9.328125 C 30.109375 -6.109375 28.816406 -3.6875 26.234375 -2.0625 C 24.117188 -0.6875 21.34375 0 17.90625 0 L 1.328125 0 L 1.328125 -1.265625 L 6.046875 -1.265625 L 6.046875 -32.90625 L 1.328125 -32.90625 L 1.328125 -34.1875 L 17.484375 -34.1875 C 20.316406 -34.1875 22.828125 -33.566406 25.015625 -32.328125 C 27.597656 -30.910156 28.890625 -28.84375 28.890625 -26.125 C 28.890625 -22.238281 26.429688 -19.710938 21.515625 -18.546875 C 23.816406 -18.015625 25.8125 -16.972656 27.5 -15.421875 C 29.238281 -13.691406 30.109375 -11.660156 30.109375 -9.328125 Z M 23.15625 -26.546875 C 23.15625 -30.785156 21.265625 -32.90625 17.484375 -32.90625 L 11.8125 -32.90625 L 11.8125 -19.078125 L 17.484375 -19.078125 C 19.566406 -19.078125 21.070312 -19.660156 22 -20.828125 C 22.769531 -21.816406 23.15625 -23.441406 23.15625 -25.703125 Z M 24.21875 -9.90625 C 24.21875 -15.175781 21.972656 -17.8125 17.484375 -17.8125 L 11.8125 -17.8125 L 11.8125 -1.265625 L 17.484375 -1.265625 C 19.921875 -1.265625 21.648438 -1.882812 22.671875 -3.125 C 23.703125 -4.363281 24.21875 -6.21875 24.21875 -8.6875 Z M 24.21875 -9.90625 "/></g></g></g><g fill="#ffffff" fill-opacity="1"><g transform="translate(229.649226, 175.426688)"><g><path d="M 23.375 -9.96875 C 23.375 -7.132812 22.257812 -4.640625 20.03125 -2.484375 C 17.800781 -0.367188 15.257812 0.6875 12.40625 0.6875 C 9.539062 0.6875 6.976562 -0.367188 4.71875 -2.484375 C 2.457031 -4.640625 1.328125 -7.132812 1.328125 -9.96875 C 1.328125 -12.789062 2.457031 -15.28125 4.71875 -17.4375 C 6.976562 -19.59375 9.539062 -20.671875 12.40625 -20.671875 C 15.332031 -20.671875 17.875 -19.59375 20.03125 -17.4375 C 22.257812 -15.25 23.375 -12.757812 23.375 -9.96875 Z M 17.21875 -11.078125 C 17.21875 -13.691406 17.023438 -15.546875 16.640625 -16.640625 C 15.972656 -18.472656 14.5625 -19.390625 12.40625 -19.390625 C 10.207031 -19.390625 8.773438 -18.472656 8.109375 -16.640625 C 7.679688 -15.578125 7.46875 -13.722656 7.46875 -11.078125 L 7.46875 -8.90625 C 7.46875 -6.21875 7.664062 -4.328125 8.0625 -3.234375 C 8.726562 -1.429688 10.175781 -0.53125 12.40625 -0.53125 C 14.625 -0.53125 16.050781 -1.445312 16.6875 -3.28125 C 17.039062 -4.132812 17.21875 -6.007812 17.21875 -8.90625 Z M 17.21875 -11.078125 "/></g></g></g><g fill="#ffffff" fill-opacity="1"><g transform="translate(251.37565, 175.426688)"><g><path d="M 23.375 -9.96875 C 23.375 -7.132812 22.257812 -4.640625 20.03125 -2.484375 C 17.800781 -0.367188 15.257812 0.6875 12.40625 0.6875 C 9.539062 0.6875 6.976562 -0.367188 4.71875 -2.484375 C 2.457031 -4.640625 1.328125 -7.132812 1.328125 -9.96875 C 1.328125 -12.789062 2.457031 -15.28125 4.71875 -17.4375 C 6.976562 -19.59375 9.539062 -20.671875 12.40625 -20.671875 C 15.332031 -20.671875 17.875 -19.59375 20.03125 -17.4375 C 22.257812 -15.25 23.375 -12.757812 23.375 -9.96875 Z M 17.21875 -11.078125 C 17.21875 -13.691406 17.023438 -15.546875 16.640625 -16.640625 C 15.972656 -18.472656 14.5625 -19.390625 12.40625 -19.390625 C 10.207031 -19.390625 8.773438 -18.472656 8.109375 -16.640625 C 7.679688 -15.578125 7.46875 -13.722656 7.46875 -11.078125 L 7.46875 -8.90625 C 7.46875 -6.21875 7.664062 -4.328125 8.0625 -3.234375 C 8.726562 -1.429688 10.175781 -0.53125 12.40625 -0.53125 C 14.625 -0.53125 16.050781 -1.445312 16.6875 -3.28125 C 17.039062 -4.132812 17.21875 -6.007812 17.21875 -8.90625 Z M 17.21875 -11.078125 "/></g></g></g><g fill="#ffffff" fill-opacity="1"><g transform="translate(273.102074, 175.426688)"><g><path d="M 15.421875 -1.265625 L 19.03125 -1.265625 L 11.8125 -10.703125 L 10.96875 -10.703125 L 10.96875 -1.265625 L 14.84375 -1.265625 L 14.84375 0 L 1.4375 0 L 1.4375 -1.265625 L 5.828125 -1.265625 L 5.828125 -32.90625 L 1.4375 -32.90625 L 1.4375 -34.1875 L 10.96875 -34.1875 L 10.96875 -11.984375 L 12.1875 -11.984375 L 19.765625 -18.875 L 15.46875 -18.875 L 15.46875 -20.140625 L 26.1875 -20.140625 L 26.1875 -18.875 L 21.734375 -18.875 L 15.578125 -13.203125 L 25.171875 -1.265625 L 29.09375 -1.265625 L 29.09375 0 L 15.421875 0 Z M 15.421875 -1.265625 "/></g></g></g><g fill="#ffffff" fill-opacity="1"><g transform="translate(131.93311, 196.931896)"><g><path d="M 1.84375 -13.5625 L 5.71875 -13.5625 C 7.40625 -13.5625 8.6875 -13.304688 9.5625 -12.796875 C 10.4375 -12.296875 10.875 -11.429688 10.875 -10.203125 C 10.875 -9.398438 10.648438 -8.734375 10.203125 -8.203125 C 9.753906 -7.679688 9.113281 -7.347656 8.28125 -7.203125 L 8.28125 -7.109375 C 8.851562 -7.003906 9.367188 -6.832031 9.828125 -6.59375 C 10.296875 -6.351562 10.660156 -6.007812 10.921875 -5.5625 C 11.191406 -5.125 11.328125 -4.554688 11.328125 -3.859375 C 11.328125 -2.628906 10.90625 -1.675781 10.0625 -1 C 9.21875 -0.332031 8.066406 0 6.609375 0 L 1.84375 0 Z M 3.546875 -7.796875 L 6.0625 -7.796875 C 7.21875 -7.796875 8.007812 -7.976562 8.4375 -8.34375 C 8.875 -8.71875 9.09375 -9.273438 9.09375 -10.015625 C 9.09375 -10.765625 8.832031 -11.300781 8.3125 -11.625 C 7.789062 -11.945312 6.953125 -12.109375 5.796875 -12.109375 L 3.546875 -12.109375 Z M 3.546875 -6.359375 L 3.546875 -1.4375 L 6.28125 -1.4375 C 7.488281 -1.4375 8.328125 -1.671875 8.796875 -2.140625 C 9.265625 -2.609375 9.5 -3.222656 9.5 -3.984375 C 9.5 -4.691406 9.253906 -5.265625 8.765625 -5.703125 C 8.273438 -6.140625 7.40625 -6.359375 6.15625 -6.359375 Z M 3.546875 -6.359375 "/></g></g></g><g fill="#ffffff" fill-opacity="1"><g transform="translate(144.280586, 196.931896)"><g><path d="M 13.6875 -6.796875 C 13.6875 -5.390625 13.445312 -4.164062 12.96875 -3.125 C 12.488281 -2.082031 11.785156 -1.269531 10.859375 -0.6875 C 9.929688 -0.101562 8.785156 0.1875 7.421875 0.1875 C 6.015625 0.1875 4.847656 -0.101562 3.921875 -0.6875 C 2.992188 -1.269531 2.300781 -2.085938 1.84375 -3.140625 C 1.382812 -4.191406 1.15625 -5.421875 1.15625 -6.828125 C 1.15625 -8.203125 1.382812 -9.410156 1.84375 -10.453125 C 2.300781 -11.503906 2.992188 -12.320312 3.921875 -12.90625 C 4.847656 -13.488281 6.023438 -13.78125 7.453125 -13.78125 C 8.804688 -13.78125 9.941406 -13.488281 10.859375 -12.90625 C 11.785156 -12.332031 12.488281 -11.519531 12.96875 -10.46875 C 13.445312 -9.425781 13.6875 -8.203125 13.6875 -6.796875 Z M 2.96875 -6.796875 C 2.96875 -5.085938 3.328125 -3.742188 4.046875 -2.765625 C 4.765625 -1.785156 5.890625 -1.296875 7.421875 -1.296875 C 8.960938 -1.296875 10.085938 -1.785156 10.796875 -2.765625 C 11.515625 -3.742188 11.875 -5.085938 11.875 -6.796875 C 11.875 -8.503906 11.519531 -9.84375 10.8125 -10.8125 C 10.101562 -11.789062 8.984375 -12.28125 7.453125 -12.28125 C 5.898438 -12.28125 4.765625 -11.789062 4.046875 -10.8125 C 3.328125 -9.84375 2.96875 -8.503906 2.96875 -6.796875 Z M 2.96875 -6.796875 "/></g></g></g><g fill="#ffffff" fill-opacity="1"><g transform="translate(159.116557, 196.931896)"><g><path d="M 13.6875 -6.796875 C 13.6875 -5.390625 13.445312 -4.164062 12.96875 -3.125 C 12.488281 -2.082031 11.785156 -1.269531 10.859375 -0.6875 C 9.929688 -0.101562 8.785156 0.1875 7.421875 0.1875 C 6.015625 0.1875 4.847656 -0.101562 3.921875 -0.6875 C 2.992188 -1.269531 2.300781 -2.085938 1.84375 -3.140625 C 1.382812 -4.191406 1.15625 -5.421875 1.15625 -6.828125 C 1.15625 -8.203125 1.382812 -9.410156 1.84375 -10.453125 C 2.300781 -11.503906 2.992188 -12.320312 3.921875 -12.90625 C 4.847656 -13.488281 6.023438 -13.78125 7.453125 -13.78125 C 8.804688 -13.78125 9.941406 -13.488281 10.859375 -12.90625 C 11.785156 -12.332031 12.488281 -11.519531 12.96875 -10.46875 C 13.445312 -9.425781 13.6875 -8.203125 13.6875 -6.796875 Z M 2.96875 -6.796875 C 2.96875 -5.085938 3.328125 -3.742188 4.046875 -2.765625 C 4.765625 -1.785156 5.890625 -1.296875 7.421875 -1.296875 C 8.960938 -1.296875 10.085938 -1.785156 10.796875 -2.765625 C 11.515625 -3.742188 11.875 -5.085938 11.875 -6.796875 C 11.875 -8.503906 11.519531 -9.84375 10.8125 -10.8125 C 10.101562 -11.789062 8.984375 -12.28125 7.453125 -12.28125 C 5.898438 -12.28125 4.765625 -11.789062 4.046875 -10.8125 C 3.328125 -9.84375 2.96875 -8.503906 2.96875 -6.796875 Z M 2.96875 -6.796875 "/></g></g></g><g fill="#ffffff" fill-opacity="1"><g transform="translate(173.952528, 196.931896)"><g><path d="M 11.765625 0 L 9.75 0 L 4.9375 -6.484375 L 3.546875 -5.265625 L 3.546875 0 L 1.84375 0 L 1.84375 -13.5625 L 3.546875 -13.5625 L 3.546875 -6.875 C 3.929688 -7.3125 4.316406 -7.742188 4.703125 -8.171875 C 5.097656 -8.597656 5.492188 -9.03125 5.890625 -9.46875 L 9.5625 -13.5625 L 11.546875 -13.5625 L 6.171875 -7.65625 Z M 11.765625 0 "/></g></g></g><g fill="#ffffff" fill-opacity="1"><g transform="translate(185.711126, 196.931896)"><g><path d="M 9.53125 -3.625 C 9.53125 -2.425781 9.09375 -1.488281 8.21875 -0.8125 C 7.351562 -0.144531 6.175781 0.1875 4.6875 0.1875 C 3.925781 0.1875 3.222656 0.128906 2.578125 0.015625 C 1.929688 -0.0976562 1.394531 -0.253906 0.96875 -0.453125 L 0.96875 -2.09375 C 1.425781 -1.882812 1.992188 -1.695312 2.671875 -1.53125 C 3.347656 -1.375 4.046875 -1.296875 4.765625 -1.296875 C 5.765625 -1.296875 6.523438 -1.488281 7.046875 -1.875 C 7.566406 -2.269531 7.828125 -2.804688 7.828125 -3.484375 C 7.828125 -3.921875 7.734375 -4.289062 7.546875 -4.59375 C 7.359375 -4.894531 7.03125 -5.171875 6.5625 -5.421875 C 6.09375 -5.679688 5.453125 -5.960938 4.640625 -6.265625 C 3.472656 -6.679688 2.597656 -7.191406 2.015625 -7.796875 C 1.429688 -8.410156 1.140625 -9.242188 1.140625 -10.296875 C 1.140625 -11.003906 1.320312 -11.617188 1.6875 -12.140625 C 2.050781 -12.660156 2.554688 -13.054688 3.203125 -13.328125 C 3.859375 -13.609375 4.613281 -13.75 5.46875 -13.75 C 6.207031 -13.75 6.882812 -13.679688 7.5 -13.546875 C 8.125 -13.410156 8.695312 -13.226562 9.21875 -13 L 8.6875 -11.53125 C 8.21875 -11.738281 7.703125 -11.910156 7.140625 -12.046875 C 6.585938 -12.179688 6.019531 -12.25 5.4375 -12.25 C 4.582031 -12.25 3.941406 -12.066406 3.515625 -11.703125 C 3.085938 -11.347656 2.875 -10.875 2.875 -10.28125 C 2.875 -9.820312 2.96875 -9.441406 3.15625 -9.140625 C 3.34375 -8.835938 3.648438 -8.5625 4.078125 -8.3125 C 4.515625 -8.0625 5.097656 -7.804688 5.828125 -7.546875 C 6.628906 -7.253906 7.304688 -6.9375 7.859375 -6.59375 C 8.410156 -6.257812 8.828125 -5.859375 9.109375 -5.390625 C 9.390625 -4.921875 9.53125 -4.332031 9.53125 -3.625 Z M 9.53125 -3.625 "/></g></g></g><g fill="#ffffff" fill-opacity="1"><g transform="translate(196.14, 196.931896)"><g/></g></g><g fill="#ffffff" fill-opacity="1"><g transform="translate(201.36393, 196.931896)"><g><path d="M 3.546875 0 L 1.84375 0 L 1.84375 -13.5625 L 9.421875 -13.5625 L 9.421875 -12.0625 L 3.546875 -12.0625 L 3.546875 -7.265625 L 9.0625 -7.265625 L 9.0625 -5.75 L 3.546875 -5.75 Z M 3.546875 0 "/></g></g></g><g fill="#ffffff" fill-opacity="1"><g transform="translate(211.222911, 196.931896)"><g><path d="M 13.6875 -6.796875 C 13.6875 -5.390625 13.445312 -4.164062 12.96875 -3.125 C 12.488281 -2.082031 11.785156 -1.269531 10.859375 -0.6875 C 9.929688 -0.101562 8.785156 0.1875 7.421875 0.1875 C 6.015625 0.1875 4.847656 -0.101562 3.921875 -0.6875 C 2.992188 -1.269531 2.300781 -2.085938 1.84375 -3.140625 C 1.382812 -4.191406 1.15625 -5.421875 1.15625 -6.828125 C 1.15625 -8.203125 1.382812 -9.410156 1.84375 -10.453125 C 2.300781 -11.503906 2.992188 -12.320312 3.921875 -12.90625 C 4.847656 -13.488281 6.023438 -13.78125 7.453125 -13.78125 C 8.804688 -13.78125 9.941406 -13.488281 10.859375 -12.90625 C 11.785156 -12.332031 12.488281 -11.519531 12.96875 -10.46875 C 13.445312 -9.425781 13.6875 -8.203125 13.6875 -6.796875 Z M 2.96875 -6.796875 C 2.96875 -5.085938 3.328125 -3.742188 4.046875 -2.765625 C 4.765625 -1.785156 5.890625 -1.296875 7.421875 -1.296875 C 8.960938 -1.296875 10.085938 -1.785156 10.796875 -2.765625 C 11.515625 -3.742188 11.875 -5.085938 11.875 -6.796875 C 11.875 -8.503906 11.519531 -9.84375 10.8125 -10.8125 C 10.101562 -11.789062 8.984375 -12.28125 7.453125 -12.28125 C 5.898438 -12.28125 4.765625 -11.789062 4.046875 -10.8125 C 3.328125 -9.84375 2.96875 -8.503906 2.96875 -6.796875 Z M 2.96875 -6.796875 "/></g></g></g><g fill="#ffffff" fill-opacity="1"><g transform="translate(226.058882, 196.931896)"><g><path d="M 5.59375 -13.5625 C 7.269531 -13.5625 8.507812 -13.238281 9.3125 -12.59375 C 10.125 -11.957031 10.53125 -10.992188 10.53125 -9.703125 C 10.53125 -8.984375 10.394531 -8.382812 10.125 -7.90625 C 9.863281 -7.425781 9.523438 -7.039062 9.109375 -6.75 C 8.703125 -6.457031 8.269531 -6.234375 7.8125 -6.078125 L 11.53125 0 L 9.53125 0 L 6.25 -5.609375 L 3.546875 -5.609375 L 3.546875 0 L 1.84375 0 L 1.84375 -13.5625 Z M 5.484375 -12.078125 L 3.546875 -12.078125 L 3.546875 -7.046875 L 5.59375 -7.046875 C 6.6875 -7.046875 7.488281 -7.265625 8 -7.703125 C 8.507812 -8.140625 8.765625 -8.785156 8.765625 -9.640625 C 8.765625 -10.523438 8.492188 -11.148438 7.953125 -11.515625 C 7.421875 -11.890625 6.597656 -12.078125 5.484375 -12.078125 Z M 5.484375 -12.078125 "/></g></g></g><g fill="#ffffff" fill-opacity="1"><g transform="translate(237.874471, 196.931896)"><g/></g></g><g fill="#ffffff" fill-opacity="1"><g transform="translate(243.098401, 196.931896)"><g><path d="M 10.359375 0 L 8.71875 -4.203125 L 3.34375 -4.203125 L 1.734375 0 L 0 0 L 5.296875 -13.625 L 6.84375 -13.625 L 12.125 0 Z M 8.203125 -5.71875 L 6.6875 -9.828125 C 6.644531 -9.921875 6.578125 -10.097656 6.484375 -10.359375 C 6.398438 -10.628906 6.316406 -10.90625 6.234375 -11.1875 C 6.160156 -11.476562 6.097656 -11.703125 6.046875 -11.859375 C 5.941406 -11.460938 5.832031 -11.078125 5.71875 -10.703125 C 5.613281 -10.328125 5.523438 -10.035156 5.453125 -9.828125 L 3.90625 -5.71875 Z M 8.203125 -5.71875 "/></g></g></g><g fill="#ffffff" fill-opacity="1"><g transform="translate(255.23692, 196.931896)"><g><path d="M 1.84375 0 L 1.84375 -13.5625 L 3.546875 -13.5625 L 3.546875 -1.515625 L 9.484375 -1.515625 L 9.484375 0 Z M 1.84375 0 "/></g></g></g><g fill="#ffffff" fill-opacity="1"><g transform="translate(265.190887, 196.931896)"><g><path d="M 1.84375 0 L 1.84375 -13.5625 L 3.546875 -13.5625 L 3.546875 -1.515625 L 9.484375 -1.515625 L 9.484375 0 Z M 1.84375 0 "/></g></g></g><g fill="#ffffff" fill-opacity="1"><g transform="translate(275.144858, 196.931896)"><g/></g></g><g fill="#ffffff" fill-opacity="1"><g transform="translate(280.368788, 196.931896)"><g><path d="M 10.359375 0 L 8.71875 -4.203125 L 3.34375 -4.203125 L 1.734375 0 L 0 0 L 5.296875 -13.625 L 6.84375 -13.625 L 12.125 0 Z M 8.203125 -5.71875 L 6.6875 -9.828125 C 6.644531 -9.921875 6.578125 -10.097656 6.484375 -10.359375 C 6.398438 -10.628906 6.316406 -10.90625 6.234375 -11.1875 C 6.160156 -11.476562 6.097656 -11.703125 6.046875 -11.859375 C 5.941406 -11.460938 5.832031 -11.078125 5.71875 -10.703125 C 5.613281 -10.328125 5.523438 -10.035156 5.453125 -9.828125 L 3.90625 -5.71875 Z M 8.203125 -5.71875 "/></g></g></g><g fill="#ffffff" fill-opacity="1"><g transform="translate(292.507306, 196.931896)"><g><path d="M 7.734375 -7.15625 L 12.421875 -7.15625 L 12.421875 -0.515625 C 11.691406 -0.273438 10.953125 -0.0976562 10.203125 0.015625 C 9.453125 0.128906 8.601562 0.1875 7.65625 0.1875 C 6.25 0.1875 5.0625 -0.09375 4.09375 -0.65625 C 3.132812 -1.21875 2.40625 -2.019531 1.90625 -3.0625 C 1.40625 -4.113281 1.15625 -5.351562 1.15625 -6.78125 C 1.15625 -8.1875 1.429688 -9.410156 1.984375 -10.453125 C 2.535156 -11.503906 3.335938 -12.316406 4.390625 -12.890625 C 5.441406 -13.460938 6.707031 -13.75 8.1875 -13.75 C 8.945312 -13.75 9.664062 -13.679688 10.34375 -13.546875 C 11.019531 -13.410156 11.648438 -13.210938 12.234375 -12.953125 L 11.59375 -11.46875 C 11.113281 -11.675781 10.570312 -11.859375 9.96875 -12.015625 C 9.363281 -12.171875 8.738281 -12.25 8.09375 -12.25 C 6.46875 -12.25 5.203125 -11.757812 4.296875 -10.78125 C 3.390625 -9.800781 2.9375 -8.46875 2.9375 -6.78125 C 2.9375 -5.707031 3.109375 -4.753906 3.453125 -3.921875 C 3.804688 -3.085938 4.359375 -2.441406 5.109375 -1.984375 C 5.859375 -1.523438 6.84375 -1.296875 8.0625 -1.296875 C 8.65625 -1.296875 9.160156 -1.328125 9.578125 -1.390625 C 9.992188 -1.453125 10.375 -1.523438 10.71875 -1.609375 L 10.71875 -5.640625 L 7.734375 -5.640625 Z M 7.734375 -7.15625 "/></g></g></g><g fill="#ffffff" fill-opacity="1"><g transform="translate(306.336484, 196.931896)"><g><path d="M 9.421875 0 L 1.84375 0 L 1.84375 -13.5625 L 9.421875 -13.5625 L 9.421875 -12.0625 L 3.546875 -12.0625 L 3.546875 -7.828125 L 9.078125 -7.828125 L 9.078125 -6.34375 L 3.546875 -6.34375 L 3.546875 -1.5 L 9.421875 -1.5 Z M 9.421875 0 "/></g></g></g><g fill="#ffffff" fill-opacity="1"><g transform="translate(316.898327, 196.931896)"><g><path d="M 9.53125 -3.625 C 9.53125 -2.425781 9.09375 -1.488281 8.21875 -0.8125 C 7.351562 -0.144531 6.175781 0.1875 4.6875 0.1875 C 3.925781 0.1875 3.222656 0.128906 2.578125 0.015625 C 1.929688 -0.0976562 1.394531 -0.253906 0.96875 -0.453125 L 0.96875 -2.09375 C 1.425781 -1.882812 1.992188 -1.695312 2.671875 -1.53125 C 3.347656 -1.375 4.046875 -1.296875 4.765625 -1.296875 C 5.765625 -1.296875 6.523438 -1.488281 7.046875 -1.875 C 7.566406 -2.269531 7.828125 -2.804688 7.828125 -3.484375 C 7.828125 -3.921875 7.734375 -4.289062 7.546875 -4.59375 C 7.359375 -4.894531 7.03125 -5.171875 6.5625 -5.421875 C 6.09375 -5.679688 5.453125 -5.960938 4.640625 -6.265625 C 3.472656 -6.679688 2.597656 -7.191406 2.015625 -7.796875 C 1.429688 -8.410156 1.140625 -9.242188 1.140625 -10.296875 C 1.140625 -11.003906 1.320312 -11.617188 1.6875 -12.140625 C 2.050781 -12.660156 2.554688 -13.054688 3.203125 -13.328125 C 3.859375 -13.609375 4.613281 -13.75 5.46875 -13.75 C 6.207031 -13.75 6.882812 -13.679688 7.5 -13.546875 C 8.125 -13.410156 8.695312 -13.226562 9.21875 -13 L 8.6875 -11.53125 C 8.21875 -11.738281 7.703125 -11.910156 7.140625 -12.046875 C 6.585938 -12.179688 6.019531 -12.25 5.4375 -12.25 C 4.582031 -12.25 3.941406 -12.066406 3.515625 -11.703125 C 3.085938 -11.347656 2.875 -10.875 2.875 -10.28125 C 2.875 -9.820312 2.96875 -9.441406 3.15625 -9.140625 C 3.34375 -8.835938 3.648438 -8.5625 4.078125 -8.3125 C 4.515625 -8.0625 5.097656 -7.804688 5.828125 -7.546875 C 6.628906 -7.253906 7.304688 -6.9375 7.859375 -6.59375 C 8.410156 -6.257812 8.828125 -5.859375 9.109375 -5.390625 C 9.390625 -4.921875 9.53125 -4.332031 9.53125 -3.625 Z M 9.53125 -3.625 "/></g></g></g></svg>